#!OML:ASF H:\MichaelJackson\Top Level 1\Subject 1\Session 1\male.ASF
:FULLY-SPECIFIED
:DEGREES
665
root 27.1431 16.8394 -17.9759 -170.007 8.14051 -174.383
lowerback 3.35363 2.45692 4.39827
upperback 1.56838 3.46557 -0.0882615
thorax -0.000210603 1.78358 -2.65737
lowerneck -9.7685 -3.03838 0.440744
upperneck 9.63005 -4.45755 3.41049
head 4.55578 -1.92707 0.68103
rclavicle 1.81888e-014 1.15295e-014
rhumerus 37.2268 79.6188 -9.8061
rradius 71.1721
rwrist -16.7855
rhand 46.4346 -25.948
rfingers 7.12502
rthumb 67.4627 -388.404
lclavicle 1.81888e-014 1.15295e-014
lhumerus -49.0369 -3.08233 91.2445
lradius 47.9628
lwrist 10.7158
lhand -9.42672 22.5558
lfingers 7.12502
lthumb 16.5356 51.8712
rfemur -26.0568 -3.68919 30.1607
rtibia 42.2881
rfoot -11.5374 2.77856
rtoes 8.45439
lfemur -45.5252 3.68443 -13.1699
ltibia 68.751
lfoot 12.1914 -10.0535
ltoes 39.7207
666
root 27.1276 16.8395 -17.888 -169.888 8.27959 -174.287
lowerback 3.29858 2.42087 4.55218
upperback 1.52813 3.42031 -0.0053837
thorax -0.0103074 1.76037 -2.65542
lowerneck -9.74154 -2.95909 0.57397
upperneck 9.59387 -4.35101 3.24189
head 4.53169 -1.88232 0.615751
rclavicle -2.05742e-014 1.98785e-015
rhumerus 46.671 78.8876 -0.0238882
rradius 71.2267
rwrist -17.3576
rhand 47.1243 -26.0838
rfingers 7.12502
rthumb 67.9662 -387.389
lclavicle -2.05742e-014 1.98785e-015
lhumerus -50.3295 -3.30794 91.7765
lradius 48.0251
lwrist 11.6043
lhand -9.85655 22.6487
lfingers 7.12502
lthumb 16.1218 51.9981
rfemur -26.4761 -3.59923 30.1955
rtibia 42.2039
rfoot -11.3449 3.24768
rtoes 8.59833
lfemur -45.3478 3.64484 -12.9045
ltibia 69.6947
lfoot 12.412 -9.7522
ltoes 39.6803
667
root 27.1128 16.839 -17.8 -169.743 8.40068 -174.18
lowerback 3.21718 2.3786 4.69924
upperback 1.48049 3.3652 0.0867756
thorax -0.0151479 1.7321 -2.63886
lowerneck -9.71148 -2.87479 0.712402
upperneck 9.55222 -4.23824 3.07344
head 4.50556 -1.83436 0.550141
rclavicle 5.06901e-014 -8.34896e-015
rhumerus 54.6922 77.9067 8.33335
rradius 71.2452
rwrist -17.8449
rhand 47.7687 -26.2195
rfingers 7.12502
rthumb 68.4277 -386.401
lclavicle 5.06901e-014 -8.34896e-015
lhumerus -51.6672 -3.61839 92.3655
lradius 48.2033
lwrist 12.2143
lhand -9.95073 22.6473
lfingers 7.12502
lthumb 16.0311 52.004
rfemur -26.9073 -3.48986 30.244
rtibia 42.0963
rfoot -11.1639 3.69307
rtoes 8.77146
lfemur -45.1744 3.65689 -12.6578
ltibia 70.5658
lfoot 12.5441 -9.39274
ltoes 39.6562
668
root 27.099 16.8377 -17.7115 -169.575 8.51044 -174.094
lowerback 3.10757 2.33459 4.80464
upperback 1.42788 3.3047 0.179294
thorax -0.0123104 1.70087 -2.59748
lowerneck -9.6837 -2.78918 0.848263
upperneck 9.50759 -4.12436 2.91489
head 4.47952 -1.78524 0.487993
rclavicle 5.26779e-015 -4.37326e-015
rhumerus 61.3204 76.7195 15.3066
rradius 71.2481
rwrist -18.2572
rhand 48.3898 -26.3696
rfingers 7.12502
rthumb 68.8639 -385.42
lclavicle 5.26779e-015 -4.37326e-015
lhumerus -53.04 -4.01209 93.0157
lradius 48.4878
lwrist 12.5474
lhand -9.74237 22.5306
lfingers 7.12502
lthumb 16.2317 51.8711
rfemur -27.3537 -3.36183 30.2777
rtibia 41.9636
rfoot -10.9871 4.09677
rtoes 9.03121
lfemur -45.0052 3.7182 -12.4661
ltibia 71.36
lfoot 12.578 -8.99914
ltoes 39.5792
669
root 27.0847 16.8364 -17.6233 -169.43 8.56294 -174.019
lowerback 3.00965 2.27033 4.91203
upperback 1.37962 3.21815 0.269713
thorax -0.0134023 1.65684 -2.55942
lowerneck -9.64441 -2.70354 0.983051
upperneck 9.45907 -4.01137 2.77276
head 4.45114 -1.73552 0.43114
rclavicle -1.84373e-014 -7.7526e-015
rhumerus 66.6796 75.3926 21.005
rradius 71.2408
rwrist -18.5876
rhand 49.0127 -26.5438
rfingers 7.12502
rthumb 69.2924 -384.412
lclavicle -1.84373e-014 -7.7526e-015
lhumerus -54.4497 -4.47136 93.7142
lradius 48.8839
lwrist 12.6367
lhand -9.24464 22.3371
lfingers 7.12502
lthumb 16.7109 51.6378
rfemur -27.763 -3.27585 30.3086
rtibia 41.8082
rfoot -10.8272 4.45021
rtoes 9.3713
lfemur -44.787 3.77986 -12.3155
ltibia 72.0703
lfoot 12.5106 -8.5836
ltoes 39.4507
670
root 27.0706 16.8347 -17.5356 -169.317 8.55157 -173.949
lowerback 2.92988 2.18792 5.02514
upperback 1.33727 3.10899 0.361746
thorax -0.0202074 1.60181 -2.52328
lowerneck -9.59709 -2.62279 1.10907
upperneck 9.4141 -3.90534 2.65012
head 4.42348 -1.68808 0.381241
rclavicle -3.21534e-014 2.38542e-015
rhumerus 70.9236 73.9765 25.5815
rradius 71.2294
rwrist -18.8403
rhand 49.6501 -26.7545
rfingers 7.12502
rthumb 69.721 -383.36
lclavicle -3.21534e-014 2.38542e-015
lhumerus -55.8838 -4.98558 94.4603
lradius 49.369
lwrist 12.5015
lhand -8.54699 22.0444
lfingers 7.12502
lthumb 17.3825 51.2871
rfemur -28.126 -3.22141 30.3481
rtibia 41.634
rfoot -10.6886 4.72645
rtoes 9.75776
lfemur -44.5096 3.84157 -12.1926
ltibia 72.687
lfoot 12.3649 -8.15652
ltoes 39.2789
671
root 27.0566 16.8329 -17.4482 -169.231 8.49018 -173.925
lowerback 2.85888 2.09454 5.10342
upperback 1.30067 2.98446 0.44217
thorax -0.0284833 1.53905 -2.47976
lowerneck -9.55149 -2.54999 1.22476
upperneck 9.38028 -3.8105 2.54595
head 4.40048 -1.6449 0.337784
rclavicle -9.83984e-015 1.78906e-015
rhumerus 74.1871 72.5219 29.1552
rradius 71.1968
rwrist -18.9905
rhand 50.3309 -26.9688
rfingers 7.12502
rthumb 70.1667 -382.165
lclavicle -9.83984e-015 1.78906e-015
lhumerus -57.3258 -5.54199 95.2448
lradius 49.9371
lwrist 12.2141
lhand -7.66683 21.6909
lfingers 7.12502
lthumb 18.2294 50.8567
rfemur -28.4589 -3.18736 30.3487
rtibia 41.4478
rfoot -10.5632 4.92506
rtoes 10.1323
lfemur -44.1739 3.90246 -12.1442
ltibia 73.1923
lfoot 12.1235 -7.7227
ltoes 39.0339
672
root 27.0428 16.8312 -17.3614 -169.18 8.38764 -173.932
lowerback 2.80024 1.99415 5.1573
upperback 1.27201 2.85052 0.514525
thorax -0.0370414 1.47172 -2.43121
lowerneck -9.50426 -2.48499 1.33518
upperneck 9.36079 -3.72622 2.44995
head 4.38214 -1.60613 0.296865
rclavicle -1.44119e-014 6.95746e-015
rhumerus 76.6347 71.0735 31.8814
rradius 71.1432
rwrist -19.0377
rhand 51.0415 -27.2102
rfingers 7.12502
rthumb 70.6181 -380.865
lclavicle -1.44119e-014 6.95746e-015
lhumerus -58.7685 -6.11899 96.052
lradius 50.5857
lwrist 11.8427
lhand -6.64222 21.3057
lfingers 7.12502
lthumb 19.2149 50.3765
rfemur -28.7523 -3.16194 30.3201
rtibia 41.2592
rfoot -10.4483 5.04826
rtoes 10.4991
lfemur -43.7614 3.97739 -12.1546
ltibia 73.5732
lfoot 11.7856 -7.29689
ltoes 38.7429
673
root 27.0294 16.8295 -17.2752 -169.165 8.24787 -173.966
lowerback 2.76037 1.89118 5.18801
upperback 1.25081 2.71364 0.581808
thorax -0.0494044 1.40298 -2.37558
lowerneck -9.46401 -2.43028 1.43153
upperneck 9.36024 -3.65501 2.36103
head 4.37141 -1.57331 0.25927
rclavicle -1.97791e-014 -2.98177e-015
rhumerus 78.3778 69.6706 33.8637
rradius 71.0541
rwrist -18.9669
rhand 51.7717 -27.4439
rfingers 7.12502
rthumb 71.0659 -379.438
lclavicle -1.97791e-014 -2.98177e-015
lhumerus -60.2008 -6.6951 96.8661
lradius 51.3103
lwrist 11.4439
lhand -5.50028 20.9034
lfingers 7.12502
lthumb 20.3127 49.8611
rfemur -29.0136 -3.12636 30.2635
rtibia 41.0809
rfoot -10.3492 5.08945
rtoes 10.808
lfemur -43.2647 4.0722 -12.213
ltibia 73.8178
lfoot 11.3171 -6.89279
ltoes 38.3939
674
root 27.0169 16.8274 -17.1891 -169.153 8.12289 -174.012
lowerback 2.72067 1.80574 5.19117
upperback 1.22605 2.59935 0.647637
thorax -0.0647379 1.34521 -2.30664
lowerneck -9.43344 -2.3844 1.51818
upperneck 9.38525 -3.59445 2.26673
head 4.37036 -1.54575 0.220579
rclavicle 2.33572e-014 -1.07344e-014
rhumerus 79.5333 68.3464 35.2084
rradius 70.9213
rwrist -18.7674
rhand 52.5036 -27.6522
rfingers 7.12502
rthumb 71.4974 -377.902
lclavicle 2.33572e-014 -1.07344e-014
lhumerus -61.6186 -7.24678 97.666
lradius 52.1075
lwrist 11.0768
lhand -4.24778 20.51
lfingers 7.12502
lthumb 21.516 49.3349
rfemur -29.2797 -3.03268 30.1885
rtibia 40.9229
rfoot -10.2462 5.07606
rtoes 11.1223
lfemur -42.7044 4.24467 -12.3059
ltibia 73.9212
lfoot 10.6745 -6.54151
ltoes 37.9472
675
root 27.0048 16.8249 -17.1033 -169.145 8.01461 -174.084
lowerback 2.68119 1.73733 5.15424
upperback 1.19799 2.50646 0.708103
thorax -0.0831956 1.29768 -2.22139
lowerneck -9.42109 -2.34668 1.58999
upperneck 9.44115 -3.54333 2.16696
head 4.38208 -1.52291 0.181533
rclavicle 1.20762e-014 -1.98785e-016
rhumerus 80.189 67.1181 35.9962
rradius 70.7402
rwrist -18.4407
rhand 53.2052 -27.8166
rfingers 7.12502
rthumb 71.8936 -376.316
lclavicle 1.20762e-014 -1.98785e-016
lhumerus -63.018 -7.75579 98.4334
lradius 52.9825
lwrist 10.7947
lhand -2.90158 20.1535
lfingers 7.12502
lthumb 22.8084 48.825
rfemur -29.5583 -2.899 30.0775
rtibia 40.7945
rfoot -10.1354 5.02568
rtoes 11.4633
lfemur -42.0795 4.48428 -12.4467
ltibia 73.8761
lfoot 9.83399 -6.25062
ltoes 37.4635
676
root 26.993 16.8219 -17.0179 -169.135 7.92669 -174.176
lowerback 2.63089 1.68586 5.08486
upperback 1.16815 2.43439 0.765722
thorax -0.0967836 1.26042 -2.12106
lowerneck -9.424 -2.31501 1.64708
upperneck 9.51844 -3.49823 2.05776
head 4.40306 -1.50368 0.14122
rclavicle -9.74045e-015 -1.92821e-014
rhumerus 80.4155 65.9916 36.2899
rradius 70.5103
rwrist -17.9823
rhand 53.8541 -27.9278
rfingers 7.12502
rthumb 72.2437 -374.738
lclavicle -9.74045e-015 -1.92821e-014
lhumerus -64.3925 -8.20764 99.155
lradius 53.9326
lwrist 10.6445
lhand -1.49569 19.8603
lfingers 7.12502
lthumb 24.157 48.3592
rfemur -29.8632 -2.74223 29.9389
rtibia 40.7082
rfoot -10.013 4.96465
rtoes 11.8449
lfemur -41.3926 4.78951 -12.6254
ltibia 73.6784
lfoot 8.76498 -6.05241
ltoes 36.9282
677
root 26.9813 16.8181 -16.9329 -169.118 7.86178 -174.277
lowerback 2.5657 1.64997 4.99176
upperback 1.13597 2.3815 0.823604
thorax -0.103721 1.2327 -2.00718
lowerneck -9.44725 -2.2885 1.6868
upperneck 9.62102 -3.45809 1.94328
head 4.43545 -1.48729 0.101328
rclavicle -3.28492e-014 1.49089e-015
rhumerus 80.2772 64.9673 36.145
rradius 70.2293
rwrist -17.3896
rhand 54.4161 -27.9745
rfingers 7.12502
rthumb 72.5337 -373.268
lclavicle -3.28492e-014 1.49089e-015
lhumerus -65.7344 -8.58635 99.8143
lradius 54.9496
lwrist 10.6503
lhand -0.0601369 19.6538
lfingers 7.12502
lthumb 25.5328 47.9629
rfemur -30.2028 -2.5709 29.7868
rtibia 40.6688
rfoot -9.87661 4.90659
rtoes 12.2742
lfemur -40.6539 5.15626 -12.8236
ltibia 73.3298
lfoot 7.47648 -5.95043
ltoes 36.3989
